<svg width="24" height="25" viewBox="0 0 24 25" fill="none" xmlns="http://www.w3.org/2000/svg">
<path d="M11.8232 1.73744L11.2929 1.20711L11.8232 1.73744C11.9209 1.63981 12.0791 1.63981 12.1768 1.73744L12.7038 1.2104L12.1768 1.73744L16.0349 5.59559L16.5653 5.06526L16.0349 5.59559C16.1326 5.69322 16.1326 5.85151 16.0349 5.94914L16.5653 6.47947L16.0349 5.94914L12.1768 9.8073C12.0791 9.90493 11.9209 9.90493 11.8232 9.8073L7.96507 5.94914C7.86744 5.85151 7.86744 5.69322 7.96507 5.59559L11.8232 1.73744ZM18.9044 16.5349C18.8068 16.6326 18.6485 16.6326 18.5509 16.5349L14.6927 12.6768C14.5951 12.5791 14.5951 12.4209 14.6927 12.3232L18.5509 8.46507C18.6485 8.36744 18.8068 8.36744 18.9044 8.46507L22.7626 12.3232C22.8602 12.4209 22.8602 12.5791 22.7626 12.6768L18.9044 16.5349ZM5.44914 16.5349L5.97947 17.0653L5.44914 16.5349C5.35151 16.6326 5.19322 16.6326 5.09559 16.5349L1.23744 12.6768L0.707107 13.2071L1.23744 12.6768C1.13981 12.5791 1.13981 12.4209 1.23744 12.3232L0.707107 11.7929L1.23744 12.3232L5.09559 8.46507C5.19322 8.36744 5.35151 8.36744 5.44914 8.46507L9.30729 12.3232C9.40493 12.4209 9.40493 12.5791 9.30729 12.6768L5.44914 16.5349ZM12.1768 23.2626C12.0791 23.3602 11.9209 23.3602 11.8232 23.2626L7.96507 19.4044C7.86744 19.3068 7.86744 19.1485 7.96507 19.0509L11.8232 15.1927C11.9209 15.0951 12.0791 15.0951 12.1768 15.1927L16.0349 19.0509C16.1326 19.1485 16.1326 19.3068 16.0349 19.4044L12.1768 23.2626Z" fill="#2B2B2B" stroke="#2B2B2B" stroke-width="1.5"/>
</svg>
